<svg width="33" height="41" fill="none" xmlns="http://www.w3.org/2000/svg"><path d="M10.878 40.57C4.924 40.536 0 28.383 0 22.194 0 12.084 7.584 9.871 10.507 9.871c1.317 0 2.723.518 3.964.975.867.32 1.765.65 2.264.65.298 0 1.002-.281 1.624-.527 1.325-.528 2.974-1.183 4.894-1.183h.012c1.433 0 5.781.314 8.395 4.24l.612.92-.88.665c-1.26.95-3.557 2.682-3.557 6.114 0 4.065 2.602 5.628 3.851 6.38.552.332 1.123.674 1.123 1.423 0 .488-3.9 10.981-9.564 10.981-1.386 0-2.365-.416-3.23-.784-.874-.371-1.628-.692-2.874-.692-.632 0-1.43.299-2.276.616-1.156.431-2.464.921-3.949.921h-.038zm12.976-40c.146 5.32-3.656 9.008-7.456 8.777-.625-4.245 3.8-8.777 7.456-8.777z" fill="#fff"/></svg>