<svg width="43" height="43" fill="none" xmlns="http://www.w3.org/2000/svg"><path d="M5.787 4.557l.403-.295-.295-.403-1.477-2.015-.296-.403-.403.296-2.014 1.476-.404.296.296.403 1.477 2.014.295.404.403-.296 2.015-1.477zm.241 5.396l.296.403.403-.296L8.74 8.583l.403-.296-.296-.403L7.371 5.87l-.296-.403-.403.296L4.658 7.24l-.403.296.295.403 1.478 2.014zm4.299-.053l-.296-.403-.403.296-2.015 1.478-.404.296.296.403 7.071 9.641L1.596 39.31l-.295.403.403.296 2.016 1.479.403.295.296-.403 14.278-19.472.217-.296-.217-.295L10.327 9.9zm16.571-8.056l-.296-.403-.403.295-2.016 1.479-.403.296.296.403 12.98 17.697-12.98 17.698-.296.403.403.296 2.016 1.479.403.295.296-.403 14.278-19.472.217-.296-.217-.295L26.898 1.844z" fill="#fff" stroke="#fff"/><path d="M15.659 1.844l-.296-.403-.403.295-2.016 1.479-.403.296.296.403 12.98 17.697-12.98 17.698-.296.403.403.296 2.016 1.479.403.295.296-.403 14.278-19.472.216-.296-.216-.295L15.659 1.844z" fill="#fff" stroke="#fff"/></svg>