<svg width="60" height="61" fill="none" xmlns="http://www.w3.org/2000/svg"><path d="M40.645 18.89a1.171 1.171 0 100 2.343 1.171 1.171 0 000-2.342zM19.353 40.183a1.171 1.171 0 10-.001 2.343 1.171 1.171 0 000-2.343z" fill="#1D3557"/><path d="M58.542 7.918a1.17 1.17 0 00-1.097.316l-4.858 4.897h-2.33l-2.563-2.656V8.113l4.789-4.86a1.171 1.171 0 00-.46-1.933A11.688 11.688 0 0048.28.71c-3.817 0-7.285 1.779-9.514 4.882-2.086 2.905-2.73 6.465-1.808 9.872l-8.632 8.632L13.945 9.682V6.853c0-.411-.216-.793-.57-1.005L5.09.876a1.171 1.171 0 00-1.432.176L.344 4.366c-.38.38-.452.97-.176 1.432l4.971 8.286c.212.353.593.569 1.005.569l2.828.001 14.382 14.414-8.599 8.6c-3.407-.922-6.969-.278-9.875 1.81C1.778 41.706 0 45.173 0 48.99c0 1.28.206 2.54.611 3.742a1.17 1.17 0 001.942.452l4.858-4.897h2.342l2.668 2.669v2.342l-4.896 4.857a1.172 1.172 0 00.452 1.943c1.202.405 2.461.61 3.741.61 3.817 0 7.283-1.778 9.512-4.88 2.088-2.906 2.732-6.467 1.81-9.874l6.907-6.907 1.582 1.719-.726.725a1.172 1.172 0 101.658 1.658l.657-.657L47.96 58.614l.034.035a7.03 7.03 0 009.945 0c2.74-2.742 2.74-7.203 0-9.945a1.206 1.206 0 00-.037-.035L41.755 33.855l.65-.65a1.171 1.171 0 10-1.658-1.657l-.721.722-1.722-1.58 6.94-6.94c.986.264 2.005.397 3.036.397 6.462 0 11.718-5.257 11.718-11.718a11.7 11.7 0 00-.61-3.742 1.17 1.17 0 00-.846-.768zm-48.255 4.737a1.16 1.16 0 00-.829-.333h-2.65l-4.16-6.945 2.02-2.02 6.933 4.16v2.65c0 .31.123.608.342.828L26.67 25.754l-1.66 1.656-14.723-14.756zm29.809 22.858l16.203 14.865a4.696 4.696 0 01-.017 6.614 4.688 4.688 0 01-6.614.016L34.776 40.832l5.32-5.319zm-1.729-1.586l-5.18 5.179-1.582-1.719 5.04-5.04 1.722 1.58zm9.913-12.125a9.365 9.365 0 01-2.995-.488 1.174 1.174 0 00-1.203.282L20.887 44.791a1.171 1.171 0 00-.282 1.203c.974 2.893.508 5.978-1.28 8.466a9.268 9.268 0 01-7.607 3.904c-.343 0-.684-.019-1.021-.055l3.722-3.693c.221-.22.346-.52.346-.832V50.47c0-.31-.123-.609-.343-.829l-3.355-3.355a1.171 1.171 0 00-.829-.343H6.923c-.312 0-.612.125-.832.347l-3.693 3.72a9.479 9.479 0 01-.055-1.022 9.266 9.266 0 013.904-7.608c2.488-1.787 5.573-2.253 8.466-1.279a1.17 1.17 0 001.203-.281l23.195-23.196a1.17 1.17 0 00.282-1.202c-.974-2.893-.51-5.977 1.277-8.464 1.783-2.483 4.557-3.906 7.61-3.906.353 0 .704.02 1.052.058l-3.645 3.7a1.168 1.168 0 00-.337.821v3.315c0 .304.118.596.329.814l3.238 3.355c.22.23.525.358.843.358h3.315c.312 0 .612-.124.832-.346l3.693-3.722c.036.338.054.679.054 1.022 0 5.169-4.205 9.374-9.374 9.374z" fill="#1D3557"/><path d="M36.503 22.548L21.838 37.212a1.172 1.172 0 001.658 1.657L38.16 24.205a1.171 1.171 0 10-1.657-1.657zm14.808 31.13a1.172 1.172 0 001.655-1.66L42.403 41.49a1.172 1.172 0 00-1.655 1.66l10.563 10.529z" fill="#1D3557"/></svg>