<svg width="74" height="61" fill="none" xmlns="http://www.w3.org/2000/svg"><path d="M65.043 9.508C54.78-.754 38.686-2.212 26.775 6.042a1.442 1.442 0 001.643 2.37 27 27 0 018.904-4.026 18.672 18.672 0 00-1.631 2.4c-2.066 3.575-3.6 8.466-4.438 14.144a1.442 1.442 0 002.853.421c.175-1.19.386-2.348.628-3.468h18.209c.752 3.493 1.189 7.36 1.273 11.392h-4.038a1.442 1.442 0 000 2.883h4.038c-.084 4.032-.52 7.9-1.273 11.392h-7.137a1.442 1.442 0 000 2.884h6.419a35.98 35.98 0 01-1.351 3.919c-1.827 4.406-4.168 7.067-6.497 7.428-.357.008-.715.01-1.073.003C39.236 57.172 35.38 49.6 34 39.328a1.442 1.442 0 10-2.858.384c.789 5.873 2.313 10.95 4.407 14.684a19.02 19.02 0 001.74 2.61 26.711 26.711 0 01-9.631-4.533 1.442 1.442 0 00-1.724 2.312 29.96 29.96 0 0017.9 5.924h.005a29.973 29.973 0 0021.205-8.785c5.665-5.665 8.784-13.196 8.784-21.208 0-8.01-3.12-15.543-8.784-21.208zm5.862 19.767H57.1c-.08-4.001-.496-7.86-1.214-11.392h11.84a26.905 26.905 0 013.179 11.392zM35.452 14.999c.745-2.621 1.674-4.932 2.736-6.771 1.721-2.98 3.726-4.62 5.647-4.62 2.504 0 5.07 2.724 7.038 7.473a35.974 35.974 0 011.352 3.918H35.452zm18.086-5.023c-.936-2.256-2.01-4.128-3.19-5.585a27.075 27.075 0 0112.656 7.157 27.466 27.466 0 012.924 3.451H55.214a39.751 39.751 0 00-1.676-5.023zm9.465 39.909a26.937 26.937 0 01-12.607 7.098c1.16-1.448 2.219-3.3 3.142-5.526a39.765 39.765 0 001.676-5.023h10.714a27.395 27.395 0 01-2.925 3.45zm-7.117-6.335c.718-3.532 1.134-7.391 1.214-11.392h13.805a26.903 26.903 0 01-3.178 11.392h-11.84z" fill="#1D3557"/><path d="M40.77 43.972a1.453 1.453 0 00-1.02-.422c-.38 0-.751.154-1.02.422s-.422.64-.422 1.02a1.446 1.446 0 001.442 1.442c.38 0 .751-.155 1.02-.423.268-.268.422-.64.422-1.02 0-.379-.154-.75-.422-1.019zm4.21-14.14a12.11 12.11 0 00-9.557-4.718h-5.235l-5.284-12.708a1.442 1.442 0 00-1.331-.889h-5.445c-.797 0-1.442.646-1.442 1.442v12.155h-5.262L7.74 20.701a1.442 1.442 0 00-1.107-.518H1.442a1.442 1.442 0 00-1.253 2.155l4.767 8.37L.189 39.08a1.442 1.442 0 001.253 2.155h5.191c.428 0 .833-.19 1.107-.518l3.684-4.413h5.262v12.17c0 .796.646 1.442 1.442 1.442h5.445c.583 0 1.108-.351 1.332-.89l5.283-12.722h5.235a12.11 12.11 0 009.557-4.718 1.441 1.441 0 000-1.754zm-25.41-15.43h3.04l4.455 10.712H19.57V14.401zm3.04 32.63h-3.04V36.294h7.5L22.61 47.03zM35.423 33.42h-24.45a1.442 1.442 0 00-1.318.502l-3.697 4.43H3.922l3.946-6.93a1.442 1.442 0 000-1.427l-3.946-6.928h2.036l3.697 4.429a1.442 1.442 0 001.319.502h24.449a9.22 9.22 0 016.5 2.71 9.219 9.219 0 01-6.5 2.712zM2.678 11.94a1.452 1.452 0 00-1.02-.423c-.379 0-.751.154-1.02.423-.267.268-.422.64-.422 1.019A1.447 1.447 0 001.658 14.4 1.446 1.446 0 003.1 12.959c0-.38-.154-.751-.422-1.02z" fill="#1D3557"/><path d="M13.05 11.517H6.92a1.442 1.442 0 000 2.884h6.129a1.442 1.442 0 000-2.884zm-1.41 35.514h-8.9a1.442 1.442 0 000 2.884h8.9a1.442 1.442 0 000-2.884z" fill="#1D3557"/></svg>