<svg width="86" height="61" fill="none" xmlns="http://www.w3.org/2000/svg"><path d="M83.93 14.18L65.864 8.075a1.255 1.255 0 00-.803 2.375l17.894 6.047-8.423 4.107a3.806 3.806 0 00-1.168-.528L48.1 13.473c-.803-4.131-5.89-5.865-9.014-2.925a5.427 5.427 0 00-1.701 3.937v.028c.008 1.748 1.455 3.17 3.225 3.17h4.362a3.193 3.193 0 002.837-1.694l23.56 6.157-26.286 12.816a5.204 5.204 0 01-4.584 0L2.627 16.497 41.116 3.49a5.257 5.257 0 013.35 0l15.026 5.08a1.254 1.254 0 10.803-2.376l-15.027-5.08a7.783 7.783 0 00-4.955 0L1.651 14.18c-2.054.695-2.24 3.54-.287 4.491l19.842 9.674c-1.092 5.19-2.758 10.776-4.57 15.736a4.957 4.957 0 001.59 5.613c5.726 4.5 12.491 7.977 19.426 10.212a16.85 16.85 0 0010.277 0c6.936-2.236 13.703-5.713 19.426-10.212a4.956 4.956 0 001.59-5.614c-1.774-4.849-3.463-10.472-4.57-15.734l9.333-4.55v18.868a3.096 3.096 0 00-2.857 3.083V49.4c0 .543.236 1.03.609 1.37l-.466 7.041a2.389 2.389 0 002.382 2.545h3.172a2.389 2.389 0 002.382-2.545l-.466-7.04a1.85 1.85 0 00.608-1.37v-3.655a3.097 3.097 0 00-2.856-3.082V23.768a3.78 3.78 0 00-.17-1.113l8.171-3.983c1.95-.951 1.77-3.796-.287-4.492zm-38.958.995H40.61c-.387 0-.716-.309-.718-.669v-.02c0-.809.324-1.558.912-2.112 1.806-1.7 4.765-.476 4.882 1.968.028.585-.349.833-.714.833zm20.206 25.683c-6.774 5.301-16.387 9.093-19.698 9.725a1.254 1.254 0 10.47 2.462c3.463-.66 12.952-4.348 20.076-9.679.175.5.378 1.069.563 1.575a2.456 2.456 0 01-.784 2.782c-6.751 5.306-13.866 8.256-18.645 9.796-2.855.92-5.956.898-8.74 0-4.779-1.54-11.893-4.49-18.645-9.796a2.455 2.455 0 01-.784-2.782l.022-.06c.183-.5.384-1.066.541-1.515 6.956 5.203 16.419 8.982 20.076 9.68a1.254 1.254 0 10.47-2.463c-3.126-.596-12.772-4.308-19.697-9.725 1.018-3.114 2.198-7.116 3.125-11.38L39.4 37.214a7.69 7.69 0 006.782 0l15.87-7.737c.928 4.264 2.107 8.266 3.126 11.38zm8.326 16.99l.437-6.592h2.042l.436 6.592h-2.915zm3.06-12.102v3.002H73.36v-3.002c0-.318.269-.587.587-.587h2.032c.318 0 .587.27.587.587z" fill="#1D3557"/></svg>