<svg width="66" height="60" fill="none" xmlns="http://www.w3.org/2000/svg"><path d="M64.793 37.922a4.048 4.048 0 00-5.59-1.081l-8.358 5.593-.024-17.41 2.903 2.72a3.306 3.306 0 002.268.897h.005a3.33 3.33 0 002.417-1.05c.606-.647.924-1.49.895-2.377a3.297 3.297 0 00-1.048-2.313l-5.504-5.157a.935.935 0 00-1.279 1.365l5.505 5.156a1.445 1.445 0 01.067 2.048 1.434 1.434 0 01-1.056.458h-.002c-.369 0-.72-.139-.99-.391L33.145 5.904a.935.935 0 00-1.28.002L10.064 26.442c-.282.265-.65.404-1.037.393a1.439 1.439 0 01-1.01-.455 1.439 1.439 0 01-.394-1.036c.011-.387.173-.746.454-1.011l23.43-22.072a1.45 1.45 0 011.984-.003L47.2 15.1a.935.935 0 001.278-1.364L34.77.895A3.323 3.323 0 0030.226.9l-7.5 7.066-.003-1.26c0-.398-.156-.771-.437-1.052a1.477 1.477 0 00-1.05-.434h-.002l-5.366.008c-.397 0-.77.156-1.05.437s-.435.655-.434 1.052l.014 9.093-7.603 7.162a3.296 3.296 0 00-1.04 2.316c-.027.886.293 1.73.9 2.374a3.296 3.296 0 002.418 1.043c.849 0 1.653-.318 2.273-.903l2.897-2.729.011 8.224a19.697 19.697 0 00-2.838-.208h-1.6v-.56a3.417 3.417 0 00-3.412-3.414H3.413A3.416 3.416 0 000 32.53v14.648a.935.935 0 101.87 0V32.53c0-.85.692-1.543 1.543-1.543h2.99c.852 0 1.544.692 1.544 1.543v22.135c0 .851-.692 1.544-1.543 1.544H3.413a1.545 1.545 0 01-1.543-1.544V53.03a.935.935 0 10-1.87 0v1.635a3.417 3.417 0 003.413 3.413h2.99a3.416 3.416 0 003.413-3.413v-.127l13.69 5.184c.025.01.051.018.077.026a6.53 6.53 0 001.778.252c.317 0 .633-.025.945-.074l20.118-2.9.014-.002a9.849 9.849 0 004.7-2.12l12.998-11.69a4.048 4.048 0 00.657-5.292zM20.854 7.092l.005 2.633-4.594 4.327-.011-6.954 4.6-.007zm11.653.776L48.95 23.27l.028 20.414-2.646 1.771-2.803-.157-.074-.744a5.92 5.92 0 00-4.756-5.235l-.017-12.144a1.694 1.694 0 00-1.692-1.69h-.002l-8.91.013a1.68 1.68 0 00-1.195.497 1.68 1.68 0 00-.494 1.197l.015 10.589a17.767 17.767 0 01-5.025-1.992 19.53 19.53 0 00-.596-.334c-.078-.042-.157-.081-.236-.122a15.785 15.785 0 00-.366-.189c-.098-.048-.197-.094-.296-.141-.105-.05-.21-.1-.315-.148a9.34 9.34 0 00-.324-.142c-.099-.043-.198-.086-.297-.127a20.515 20.515 0 00-1.95-.687 19.44 19.44 0 00-.69-.19l-.183-.049-.015-10.345L32.507 7.868zm4.321 31.217l-7.818-.9-.737-.085-.015-10.733 8.554-.012.016 11.73zM62.89 41.82L49.906 53.498a7.977 7.977 0 01-3.756 1.679l-20.109 2.898-.012.002-.014.002a4.455 4.455 0 01-1.886-.12l-14.312-5.42V34.96h1.6a17.852 17.852 0 014.66.62l.043.012c.16.044.321.09.481.139l.086.026c.17.052.34.107.508.165l.052.018a17.835 17.835 0 012.107.882l.057.028c.157.079.313.16.469.244l.087.048c.157.085.313.172.467.262a19.637 19.637 0 007.221 2.508l10.474 1.206a4.054 4.054 0 013.465 3.621l.041.419-19.629-1.72a.935.935 0 00-.163 1.863l20.752 1.818h.015l.014.002 3.914.22a.915.915 0 00.053.001c.018 0 .036-.003.055-.004.02-.001.041-.002.062-.005.028-.003.055-.01.083-.015.02-.005.039-.008.058-.014.03-.008.059-.02.088-.031.016-.007.032-.011.047-.018a.93.93 0 00.127-.071l3.322-2.223 9.81-6.567a2.174 2.174 0 013.005.58c.611.9.46 2.121-.358 2.847z" fill="#1D3557"/></svg>