<svg width="61" height="60" fill="none" xmlns="http://www.w3.org/2000/svg"><path d="M40.548 38.58c-1.438 0-2.609-1.013-2.609-2.258s1.17-2.258 2.61-2.258c1.438 0 2.608 1.013 2.608 2.258a1.186 1.186 0 002.371 0c0-2.173-1.619-4-3.794-4.496v-.616a1.186 1.186 0 00-2.372 0v.616c-2.175.496-3.794 2.323-3.794 4.496 0 2.553 2.234 4.63 4.98 4.63 1.439 0 2.609 1.012 2.609 2.257s-1.17 2.258-2.609 2.258c-1.438 0-2.609-1.012-2.609-2.258a1.186 1.186 0 00-2.371 0c0 2.173 1.619 4 3.794 4.496v.513a1.186 1.186 0 002.372 0v-.513c2.175-.496 3.794-2.323 3.794-4.496 0-2.552-2.234-4.629-4.98-4.629zm12.987-7.053a15.45 15.45 0 00-6.31-5.585 1.186 1.186 0 10-1.028 2.137c4.495 2.16 7.4 6.778 7.4 11.763a13.07 13.07 0 01-1.52 6.117 1.186 1.186 0 102.093 1.114 15.446 15.446 0 001.798-7.231c0-2.96-.841-5.835-2.433-8.315zm-11.123-7.1h-.08a1.186 1.186 0 000 2.371h.074a1.186 1.186 0 00.006-2.371zM34.91 51.605c-4.495-2.161-7.4-6.778-7.4-11.763 0-2.133.526-4.248 1.52-6.118a1.186 1.186 0 00-2.093-1.113 15.446 15.446 0 00-1.798 7.23c0 2.96.841 5.836 2.433 8.316a15.452 15.452 0 006.31 5.585 1.186 1.186 0 101.027-2.138zm3.865 1.28h-.069a1.185 1.185 0 10-.01 2.372h.079a1.186 1.186 0 000-2.372z" fill="#1D3557"/><path d="M45.938 20.415a5.447 5.447 0 00-.527-.968h3.087a5.46 5.46 0 005.455-5.455 5.46 5.46 0 00-5.455-5.454h-9.496c.604-.878.958-1.94.958-3.083A5.46 5.46 0 0034.506 0H5.455A5.46 5.46 0 000 5.455a5.46 5.46 0 005.455 5.454h9.495a5.423 5.423 0 00-.958 3.083c0 1.143.354 2.205.958 3.083h-3.092a5.46 5.46 0 00-5.455 5.455c0 1.727.808 3.268 2.065 4.268a5.445 5.445 0 000 8.538 5.446 5.446 0 000 8.537 5.446 5.446 0 00-2.065 4.27 5.46 5.46 0 005.455 5.454h13.974C29.513 57.534 34.75 60 40.553 60c11.116 0 20.159-9.043 20.159-20.158 0-9.251-6.265-17.065-14.774-19.427zm2.56-9.506c1.7 0 3.083 1.383 3.083 3.083 0 1.7-1.383 3.083-3.083 3.083H19.447a3.087 3.087 0 01-3.083-3.083c0-1.7 1.383-3.083 3.083-3.083h29.05zM5.455 8.538a3.086 3.086 0 01-3.083-3.083c0-1.7 1.383-3.083 3.083-3.083h29.05c1.7 0 3.084 1.383 3.084 3.083 0 1.7-1.383 3.083-3.083 3.083H5.455zm6.403 10.909h29.051c.478 0 .935.11 1.345.31a20.317 20.317 0 00-1.7-.073c-5.567 0-10.614 2.268-14.265 5.929H11.858a3.087 3.087 0 01-3.083-3.083c0-1.7 1.383-3.083 3.083-3.083zm0 8.537h12.405a20.102 20.102 0 00-3.048 6.166h-9.357a3.086 3.086 0 01-3.083-3.083c0-1.7 1.383-3.083 3.083-3.083zm0 8.538h8.812a20.203 20.203 0 00-.073 6.166h-8.74a3.086 3.086 0 01-3.082-3.083c0-1.7 1.383-3.083 3.083-3.083zm0 14.703a3.086 3.086 0 01-3.083-3.083c0-1.7 1.383-3.083 3.083-3.083h9.223a20.083 20.083 0 002.845 6.166H11.858zm28.695 6.404c-9.807 0-17.786-7.98-17.786-17.787 0-9.808 7.979-17.787 17.786-17.787 9.808 0 17.787 7.98 17.787 17.787 0 9.807-7.98 17.787-17.787 17.787z" fill="#1D3557"/></svg>