<svg width="66" height="61" fill="none" xmlns="http://www.w3.org/2000/svg"><path d="M31.613 25.499c0 .526.427.952.953.952h14.01a.952.952 0 100-1.905h-14.01a.952.952 0 00-.953.953zm25.617-.953h-3.946a.953.953 0 000 1.905h3.947a.952.952 0 100-1.905zm0 9.223h-3.946a.953.953 0 000 1.905h3.947a.952.952 0 100-1.905zm0 9.222h-3.946a.953.953 0 000 1.905h3.947a.952.952 0 100-1.905z" fill="#1D3557"/><path d="M64.069 10.036a.952.952 0 00.952-.952V1.727A1.59 1.59 0 0063.434.14H26.363a1.59 1.59 0 00-1.588 1.587v26.98H2.412A2.414 2.414 0 000 31.117v6.563a.953.953 0 001.905 0v-6.563c0-.28.227-.507.507-.507h30.847c.28 0 .507.227.507.507V52.7c0 .28-.228.506-.507.506H2.412a.507.507 0 01-.507-.506V42.125a.952.952 0 00-1.905 0V52.7a2.414 2.414 0 002.412 2.411h22.363v3.441a1.59 1.59 0 001.588 1.587h37.07a1.59 1.59 0 001.588-1.587V13.53a.953.953 0 00-1.904 0v44.706H26.68V55.11h6.579a2.414 2.414 0 002.411-2.41v-7.804h10.904a.952.952 0 100-1.905H35.671v-7.317h10.904a.953.953 0 000-1.905H35.671v-2.651a2.414 2.414 0 00-2.412-2.412H26.68V2.044h36.437v7.04c0 .526.426.952.952.952z" fill="#1D3557"/><path d="M46.798 5.265h-3.8c-.738 0-1.34.601-1.34 1.34v3.038H38.62c-.738 0-1.34.601-1.34 1.34v3.8c0 .738.602 1.339 1.34 1.339h3.039v3.038c0 .739.6 1.34 1.34 1.34h3.799c.738 0 1.34-.601 1.34-1.34v-3.038h3.038c.738 0 1.34-.601 1.34-1.34v-3.8c0-.738-.602-1.339-1.34-1.339h-3.039V6.605c0-.739-.6-1.34-1.34-1.34zm3.813 6.283v2.669h-3.168c-.668 0-1.21.543-1.21 1.21v3.168h-2.67v-3.168c0-.667-.542-1.21-1.21-1.21h-3.167v-2.669h3.167c.668 0 1.21-.543 1.21-1.21V7.17h2.67v3.168c0 .667.542 1.21 1.21 1.21h3.168zM12.15 39.49v-4.687c0-.754-.614-1.366-1.367-1.366H6.096c-.753 0-1.366.612-1.366 1.366v4.687c0 .753.613 1.365 1.366 1.365h4.687c.754 0 1.366-.612 1.366-1.365zm-1.906-.54H6.635v-3.608h3.61v3.609zm-3.018 8.24a.953.953 0 000 1.904h1.583a.952.952 0 100-1.905H7.226zm8.128 1.904a.952.952 0 100-1.905h-1.583a.952.952 0 000 1.905h1.583zm4.01-.952c0 .526.426.952.952.952H21.9a.952.952 0 100-1.905h-1.584a.952.952 0 00-.952.953zm7.497-.952a.953.953 0 000 1.904h1.584a.952.952 0 100-1.905H26.86zm3.088-10.044a.953.953 0 00-.953-.952h-6.455a.952.952 0 000 1.904h6.455a.952.952 0 00.953-.952zM10.604 24.193c5.847 0 10.604-4.757 10.604-10.604 0-5.847-4.757-10.604-10.604-10.604C4.757 2.985 0 7.742 0 13.59c0 5.847 4.757 10.604 10.604 10.604zm0-19.303c4.796 0 8.699 3.903 8.699 8.7 0 4.796-3.903 8.698-8.7 8.698-4.796 0-8.698-3.902-8.698-8.699 0-4.796 3.902-8.699 8.699-8.699z" fill="#1D3557"/><path d="M11.237 16.44H8.07a.953.953 0 000 1.905h1.583V19a.952.952 0 101.904 0v-.674a2.858 2.858 0 002.535-2.835 2.857 2.857 0 00-2.854-2.854H9.971a.95.95 0 010-1.898h2.175a.952.952 0 000-1.905h-.59v-.655a.952.952 0 10-1.904 0v.673a2.858 2.858 0 00-2.535 2.836 2.857 2.857 0 002.854 2.854h1.266a.95.95 0 010 1.898zm36.271 36.39a1.59 1.59 0 001.588 1.588h7.988a1.59 1.59 0 001.588-1.587v-1.68a.953.953 0 00-1.905 0v1.362h-7.354v-1.361a.952.952 0 10-1.905 0v1.678z" fill="#1D3557"/></svg>