<svg width="64" height="61" fill="none" xmlns="http://www.w3.org/2000/svg"><path d="M38.417 23.972c-.14 0-.28-.024-.416-.072l-6.224-2.214-6.225 2.214a1.241 1.241 0 01-1.656-1.204l.181-6.604-4.028-5.235a1.24 1.24 0 01.633-1.948l6.336-1.867 3.735-5.45a1.242 1.242 0 012.048 0l3.734 5.45 6.337 1.867a1.241 1.241 0 01.633 1.948l-4.029 5.236.182 6.603a1.242 1.242 0 01-1.241 1.276zM23.12 10.778l3.193 4.15c.174.226.265.506.257.791l-.144 5.235 4.934-1.755a1.25 1.25 0 01.832 0l4.933 1.755-.143-5.235a1.237 1.237 0 01.257-.79l3.192-4.15-5.022-1.481a1.24 1.24 0 01-.673-.49l-2.96-4.318-2.96 4.319a1.239 1.239 0 01-.673.489l-5.023 1.48zm26.75 1.765a1.242 1.242 0 01-1.24-1.276l.076-2.782-1.697-2.206a1.242 1.242 0 01.633-1.947l2.67-.787 1.573-2.296a1.242 1.242 0 012.048 0l1.573 2.296 2.67.787a1.243 1.243 0 01.633 1.947L57.11 8.485l.077 2.782a1.24 1.24 0 01-1.656 1.204l-2.623-.933-2.622.933a1.248 1.248 0 01-.416.072zm3.04-3.563c.14 0 .281.023.415.071l1.332.474-.038-1.413a1.238 1.238 0 01.257-.791l.861-1.12-1.355-.4a1.241 1.241 0 01-.673-.489l-.8-1.166-.799 1.166a1.241 1.241 0 01-.673.489l-1.355.4.862 1.12c.173.226.265.505.256.79l-.039 1.414 1.332-.474c.136-.048.276-.071.417-.071zm-39.227 3.563c-.14 0-.28-.024-.416-.072l-2.622-.933-2.622.933a1.242 1.242 0 01-1.657-1.204l.077-2.782-1.698-2.206a1.24 1.24 0 01.633-1.948l2.67-.787L9.62 1.248a1.242 1.242 0 012.048 0l1.574 2.296 2.669.788a1.24 1.24 0 01.633 1.947l-1.698 2.206.077 2.782a1.242 1.242 0 01-1.24 1.276zM10.645 8.98c.14 0 .282.023.416.071l1.332.474-.039-1.413a1.24 1.24 0 01.257-.791l.862-1.12-1.356-.4a1.239 1.239 0 01-.673-.489l-.799-1.166-.799 1.166c-.161.236-.4.408-.673.489l-1.356.4.862 1.12c.174.226.265.505.257.79l-.038 1.414 1.332-.474c.134-.048.274-.071.415-.071zm21.132 43.057a1.233 1.233 0 01-.69-.21 1.18 1.18 0 01-.341-.342 1.194 1.194 0 01-.115-.215 1.235 1.235 0 011.388-1.69 1.248 1.248 0 01.904.74c.03.076.055.154.07.234a1.197 1.197 0 01-.07.716 1.226 1.226 0 01-.672.671 1.234 1.234 0 01-.474.096zm0-4.097a1.241 1.241 0 01-1.241-1.24V26.216a1.242 1.242 0 012.482 0V46.7c0 .686-.555 1.242-1.241 1.242zm21.07-7.91a1.241 1.241 0 01-1.121-.708l-2.23-4.693-4.694-2.23a1.24 1.24 0 01-.32-2.023l3.774-3.572.671-5.153a1.24 1.24 0 011.825-.93l4.563 2.486 5.108-.953A1.24 1.24 0 0161.87 23.7l-.954 5.108 2.486 4.563a1.242 1.242 0 01-.93 1.825l-5.152.672-3.573 3.773a1.24 1.24 0 01-.9.389zm-5.343-9.096l3.456 1.643c.257.122.465.33.588.588l1.643 3.456 2.63-2.78c.196-.207.458-.34.741-.377l3.794-.495-1.83-3.36a1.242 1.242 0 01-.13-.821l.702-3.762-3.761.703a1.25 1.25 0 01-.822-.13l-3.36-1.83-.494 3.794c-.037.283-.17.545-.378.74l-2.78 2.631z" fill="#1D3557"/><path d="M33.968 60.709a1.242 1.242 0 01-1.236-1.369c.813-7.87 4.602-13.85 7.638-17.48 3.278-3.92 6.379-6.004 6.509-6.09a1.241 1.241 0 111.375 2.066c-.118.079-2.929 1.969-5.98 5.617-2.813 3.365-6.325 8.896-7.073 16.143a1.241 1.241 0 01-1.233 1.113zM10.707 40.03c-.338 0-.665-.137-.902-.387l-3.571-3.774-5.153-.672a1.24 1.24 0 01-.93-1.824l2.485-4.563-.953-5.108a1.24 1.24 0 011.448-1.448l5.108.953 4.563-2.485a1.242 1.242 0 011.824.93l.672 5.152 3.774 3.572a1.242 1.242 0 01-.32 2.023l-4.693 2.23-2.23 4.693a1.242 1.242 0 01-1.122.709zm-7.51-7.06l3.795.494c.283.037.545.17.74.378l2.631 2.779 1.643-3.456c.123-.258.33-.466.588-.588l3.456-1.643-2.779-2.63a1.238 1.238 0 01-.378-.741l-.494-3.795-3.36 1.83a1.237 1.237 0 01-.822.13l-3.762-.701.703 3.76c.052.282.006.572-.13.822l-1.83 3.36z" fill="#1D3557"/><path d="M29.586 60.709a1.241 1.241 0 01-1.233-1.114c-.749-7.246-4.26-12.777-7.073-16.142-3.05-3.646-5.863-5.538-5.98-5.617a1.241 1.241 0 111.375-2.066c.13.086 3.232 2.172 6.509 6.09 3.036 3.63 6.825 9.61 7.639 17.48a1.241 1.241 0 01-1.237 1.369zm11.942-.231a1.242 1.242 0 01-1.127-1.76c1.895-4.131 5.053-6.68 7.37-8.092 2.453-1.496 4.447-2.051 4.666-2.11a1.241 1.241 0 11.64 2.399c-.018.005-1.822.495-4.015 1.83-2.02 1.232-4.771 3.447-6.405 7.009a1.24 1.24 0 01-1.129.724zm-18.326 0c-.47 0-.92-.269-1.129-.724-1.633-3.562-4.384-5.777-6.405-7.008-2.192-1.337-3.997-1.826-4.015-1.831a1.24 1.24 0 11.64-2.399c.22.059 2.214.615 4.667 2.11 2.316 1.411 5.475 3.96 7.37 8.093a1.241 1.241 0 01-1.128 1.759zm34.623-15.767a1.241 1.241 0 01-1.242-1.24v-1.034a1.242 1.242 0 012.483 0v1.033a1.24 1.24 0 01-1.241 1.241zm0 5.605a1.242 1.242 0 01-1.242-1.241V48.04a1.242 1.242 0 012.483 0v1.034c0 .685-.556 1.241-1.241 1.241zm3.319-3.319H60.11a1.242 1.242 0 010-2.483h1.034a1.241 1.241 0 110 2.483zm-5.604 0h-1.034a1.242 1.242 0 010-2.483h1.034a1.241 1.241 0 110 2.483zM5.729 44.711a1.241 1.241 0 01-1.242-1.24v-1.034a1.241 1.241 0 112.483 0v1.033a1.24 1.24 0 01-1.241 1.241zm0 5.605a1.242 1.242 0 01-1.242-1.241V48.04a1.242 1.242 0 012.483 0v1.034c0 .685-.556 1.241-1.241 1.241zm3.319-3.319H8.015a1.242 1.242 0 010-2.483h1.033a1.241 1.241 0 110 2.483zm-5.604 0H2.41a1.242 1.242 0 010-2.483h1.034a1.241 1.241 0 110 2.483z" fill="#1D3557"/></svg>