<svg width="80" height="61" fill="none" xmlns="http://www.w3.org/2000/svg"><path d="M64.744 18.86L60.076 5.634a2.484 2.484 0 00-2.339-1.654H21.463c-1.05 0-1.99.664-2.339 1.654L14.456 18.86c-.271.768.318 1.6 1.132 1.6h48.025a1.2 1.2 0 001.131-1.6zm-47.46-.8l4.103-11.627a.082.082 0 01.075-.054h36.275c.033 0 .065.023.076.054l4.103 11.627H17.285zM62.64 34.7c-4.262 0-7.6 2.213-7.6 5.04 0 2.826 3.338 5.04 7.6 5.04s7.6-2.214 7.6-5.04c0-2.827-3.338-5.04-7.6-5.04zm0 7.68c-2.976 0-5.2-1.394-5.2-2.64 0-1.247 2.224-2.64 5.2-2.64s5.2 1.393 5.2 2.64c0 1.246-2.224 2.64-5.2 2.64zM16.56 34.7c-4.262 0-7.6 2.213-7.6 5.04 0 2.826 3.338 5.04 7.6 5.04s7.6-2.214 7.6-5.04c0-2.827-3.338-5.04-7.6-5.04zm0 7.68c-2.976 0-5.2-1.394-5.2-2.64 0-1.247 2.224-2.64 5.2-2.64s5.2 1.393 5.2 2.64c0 1.246-2.224 2.64-5.2 2.64z" fill="#1D3557"/><path d="M78 16.78h-6.4a1.2 1.2 0 00-1.164.909l-.843 3.371-5.896-16.704A6.33 6.33 0 0057.737.14H21.463a6.33 6.33 0 00-5.96 4.216L9.607 21.061l-.843-3.372a1.2 1.2 0 00-1.164-.91H1.2a1.2 1.2 0 00-1.2 1.2v5.12a1.2 1.2 0 001.2 1.2h6.628l-4.09 5.728a6.286 6.286 0 00-1.178 3.674V48.7a6.314 6.314 0 002.562 5.077l-.002.043v3.84a2.483 2.483 0 002.48 2.48h7.68a2.483 2.483 0 002.48-2.48v-2.64h43.68v2.64a2.483 2.483 0 002.48 2.48h7.68a2.483 2.483 0 002.48-2.48v-3.84l-.002-.043A6.314 6.314 0 0076.64 48.7v-15a6.285 6.285 0 00-1.177-3.673L71.372 24.3H78a1.2 1.2 0 001.2-1.2v-5.12a1.2 1.2 0 00-1.2-1.2zM2.4 21.9v-2.72h4.263l.68 2.72H2.4zm12.96 35.76a.08.08 0 01-.08.08H7.6a.08.08 0 01-.08-.08v-2.64h7.84v2.64zm56.32 0a.08.08 0 01-.08.08h-7.68a.08.08 0 01-.08-.08v-2.64h7.84v2.64zm-1.36-5.04H8.88a3.926 3.926 0 01-3.73-2.72h68.9a3.926 3.926 0 01-3.73 2.72zm-20.4-12.96v2.72H29.28v-2.72h20.64zm-20.451-2.4a3.926 3.926 0 013.731-2.72H46a3.926 3.926 0 013.732 2.72H29.469zm20.451 7.52v2.72H29.28v-2.72h20.64zm23.59-13.358c.478.669.73 1.457.73 2.278v13.8H52.32v-9.04A6.327 6.327 0 0046 32.14H33.2a6.327 6.327 0 00-6.32 6.32v9.04H4.96V33.7a3.9 3.9 0 01.73-2.278l5.088-7.122H54.96a1.2 1.2 0 100-2.4H11.856l5.91-16.745a3.926 3.926 0 013.697-2.616h36.275a3.926 3.926 0 013.696 2.616l5.91 16.744H60.08a1.2 1.2 0 100 2.4h8.343l5.087 7.123zm3.29-9.523h-4.943l.68-2.72H76.8v2.72z" fill="#1D3557"/><path d="M20.4 30.86h-7.68a1.2 1.2 0 100 2.4h7.68a1.2 1.2 0 000-2.4zm46.08 0H58.8a1.2 1.2 0 100 2.4h7.68a1.2 1.2 0 100-2.4z" fill="#1D3557"/></svg>