<svg width="66" height="60" fill="none" xmlns="http://www.w3.org/2000/svg"><path d="M64.364 49.09h-1.212a7.613 7.613 0 00-1.418-12 7.636 7.636 0 003.72-6.545 7.646 7.646 0 00-7.636-7.636H48v-7.636a1.091 1.091 0 00-1.257-1.078l-12.925 1.987v-1.018a5.465 5.465 0 004.364-5.346c0-4.76-4.491-9.308-4.683-9.499a1.091 1.091 0 00-1.543 0c-.192.191-4.683 4.738-4.683 9.499a5.465 5.465 0 004.364 5.346v1.356L18.38 18.56a1.09 1.09 0 00-.925 1.076V31.79a11.934 11.934 0 00-2.728-2.188 1.09 1.09 0 00-1.09 0 12.054 12.054 0 00-5.892 8.82 11.85 11.85 0 00-2.29-.24c-.482.002-.963.033-1.44.094a1.09 1.09 0 00-.873.654 11.99 11.99 0 004.153 14.525H0v2.181h2.599l1.88 3.76c.184.37.562.604.976.604h41.454A1.09 1.09 0 0048 58.91v-3.274h6.962l1.88 3.76c.185.37.563.604.976.604h4.364c.602 0 1.091-.489 1.091-1.09v-3.274h1.09a1.09 1.09 0 001.092-1.09v-4.364a1.09 1.09 0 00-1.091-1.091zm-1.091-5.454a5.461 5.461 0 01-5.455 5.455H38.182a5.455 5.455 0 010-10.91h14.182a3.273 3.273 0 110 6.546h-10.91a1.09 1.09 0 010-2.182h7.637v-2.181h-7.636a3.273 3.273 0 100 6.545h10.909a5.461 5.461 0 005.454-5.454 5.398 5.398 0 00-1.119-3.273h1.12a5.461 5.461 0 015.454 5.454zm-8.727-18.545a3.273 3.273 0 110 6.545h-10.91a1.09 1.09 0 010-2.182h7.637v-2.181h-7.637a3.273 3.273 0 100 6.545h10.91A5.461 5.461 0 0060 28.364a5.403 5.403 0 00-1.008-3.138A5.455 5.455 0 0157.818 36H42.546a5.455 5.455 0 010-10.91h12zM29.455 9.818c0-2.79 2.1-5.69 3.272-7.091C33.901 4.127 36 7.022 36 9.818a3.273 3.273 0 01-2.182 3.072v-1.981h-2.181v1.981a3.273 3.273 0 01-2.182-3.072zM14.182 31.83a9.852 9.852 0 014.303 7.207 12.027 12.027 0 00-4.293 2.923 12.072 12.072 0 00-4.315-2.906 9.85 9.85 0 014.305-7.224zm5.472 9.089a9.82 9.82 0 013.255-.555c.172 0 .35.006.537.018 1.797 5.116-.893 10.72-6.01 12.518a9.821 9.821 0 01-3.254.555 8.42 8.42 0 01-.537-.019c-1.797-5.116.893-10.72 6.01-12.517zm-15.29 2.717a9.76 9.76 0 01.554-3.254 9.717 9.717 0 017.903 3.327 11.814 11.814 0 00-1.56 9.303 9.818 9.818 0 01-6.897-9.376zm17.871 14.182H6.129l-1.091-2.182h18.288l-1.091 2.182zm10.492 0h-8.053l1.091-2.182h2.599v-2.181H21.06a11.982 11.982 0 004.162-14.524 1.091 1.091 0 00-.873-.654 11.5 11.5 0 00-3.727.13 11.945 11.945 0 00-1.055-3.498h.07V20.572l26.181-4.027v6.364h-3.272a7.627 7.627 0 00-5.27 13.15 7.624 7.624 0 00-4.428 13.032h-1.211a1.09 1.09 0 00-1.091 1.09v4.364a1.09 1.09 0 001.09 1.091h1.091v2.182zm4.78 0H34.91v-2.182h3.69l-1.091 2.182zm8.311 0h-5.87l1.09-2.182h4.78v2.182zm15.273 0h-2.598l-1.091-2.182h3.69v2.182zm2.182-4.363H32.727v-2.182h30.546v2.181z" fill="#1D3557"/><path d="M24 22.909h-2.182v8.727H24V22.91zm0 10.909h-2.182V36H24v-2.182z" fill="#1D3557"/></svg>