<svg width="77" height="60" fill="none" xmlns="http://www.w3.org/2000/svg"><path d="M32.837 30.831c-.495 0-.932-.323-1.076-.797l-3.416-11.221H18.114a1.125 1.125 0 110-2.25h11.064c.495 0 .932.324 1.076.798l2.583 8.484 3.772-12.39a1.124 1.124 0 012.151 0l1.633 5.362h9.89a1.125 1.125 0 010 2.249H39.56c-.495 0-.932-.324-1.076-.797l-.8-2.626-3.771 12.391c-.144.474-.58.797-1.076.797z" fill="#1D3557"/><path d="M74.455 9.465a1.124 1.124 0 10-1.959 1.104 16.185 16.185 0 012.082 7.905c.014 7.37-4.22 15.567-12.586 24.367-6.81 7.163-14.452 12.635-17.422 14.654a1.445 1.445 0 01-1.635 0c-2.632-1.79-9.031-6.359-15.229-12.43h10.492v4.557a2.627 2.627 0 002.623 2.624h2.45a2.627 2.627 0 002.624-2.624v-.095c.122.018.247.03.375.03h2.45a2.627 2.627 0 002.623-2.623V34.1a2.627 2.627 0 00-2.624-2.624h-2.45c-.127 0-.252.012-.374.03v-.095a2.627 2.627 0 00-2.624-2.624h-2.45a2.627 2.627 0 00-2.623 2.624v4.446h-3.545a1.125 1.125 0 100 2.249h3.545v4.71H13.145v-4.71h16.422a1.125 1.125 0 100-2.25H19.66c-4.477-6.193-6.743-12.04-6.733-17.383.017-8.952 7.309-16.225 16.26-16.225h.023a16.19 16.19 0 0112.663 6.094 2.4 2.4 0 001.88.902c.735 0 1.42-.33 1.88-.902A16.191 16.191 0 0158.294 2.25h.023c4.156 0 8.117 1.583 11.158 4.458a1.125 1.125 0 001.545-1.633C67.56 1.8 63.05 0 58.318 0h-.027a18.428 18.428 0 00-14.413 6.936.162.162 0 01-.25 0A18.431 18.431 0 0029.213 0h-.026c-10.19 0-18.49 8.28-18.51 18.47-.01 5.438 2.087 11.28 6.236 17.388h-3.769V31.41a2.626 2.626 0 00-2.623-2.623h-2.45a2.627 2.627 0 00-2.624 2.623v.096a2.63 2.63 0 00-.374-.03h-2.45A2.627 2.627 0 000 34.101v12.832a2.627 2.627 0 002.624 2.624h2.45c.127 0 .252-.013.374-.03v.095a2.627 2.627 0 002.624 2.624h2.45a2.627 2.627 0 002.623-2.624v-4.556h11.389c6.795 6.995 14.224 12.308 17.136 14.289a3.7 3.7 0 002.082.645 3.7 3.7 0 002.083-.645c3.03-2.06 10.827-7.644 17.787-14.965 8.777-9.233 13.22-17.954 13.205-25.92a18.443 18.443 0 00-2.372-9.005zM46.27 33.726h2.45c.206 0 .374.168.374.375v12.832a.375.375 0 01-.374.375h-2.45a.375.375 0 01-.375-.375V34.101c0-.207.168-.375.375-.375zm-5.823-2.315c0-.206.167-.374.374-.374h2.45c.207 0 .375.168.375.374v18.211a.375.375 0 01-.375.375h-2.45a.375.375 0 01-.374-.375v-18.21zm-29.55 18.211a.375.375 0 01-.375.376h-2.45a.375.375 0 01-.375-.376v-8.89a1.125 1.125 0 00-2.249 0v6.201a.375.375 0 01-.375.375h-2.45a.375.375 0 01-.374-.375V34.101c0-.207.168-.375.375-.375h2.45c.206 0 .374.168.374.375v1.381a1.124 1.124 0 102.25 0v-4.07c0-.207.167-.375.374-.375h2.45c.206 0 .374.168.374.374v18.211z" fill="#1D3557"/></svg>