<svg width="60" height="61" fill="none" xmlns="http://www.w3.org/2000/svg"><path d="M34.426 52.84H32.46V43.2a.983.983 0 10-1.967 0v9.64H4.918V33.168h8.184a.984.984 0 100-1.967H3.934a.983.983 0 00-.983.983V52.84H.984a.984.984 0 00-.984.984v1.967a4.918 4.918 0 004.918 4.918h25.574a4.918 4.918 0 004.918-4.918v-1.967a.984.984 0 00-.984-.984zm-.983 2.951a2.95 2.95 0 01-2.951 2.95h-1.967v-.983a.984.984 0 10-1.968 0v.984H8.852v-.984a.984.984 0 00-1.967 0v.984H4.918a2.95 2.95 0 01-2.95-2.951v-.984h31.475v.984zM51.148 7.594h1.967a.984.984 0 000-1.967h-1.968a2.95 2.95 0 00-2.95 2.95v.984h-.984a.983.983 0 100 1.968h.984v2.95a.984.984 0 001.967 0v-2.95h.983a.984.984 0 000-1.968h-.983v-.983a.983.983 0 01.983-.984z" fill="#1D3557"/><path d="M56.066 1.693H44.262a2.95 2.95 0 00-2.95 2.95v1.968a.984.984 0 001.967 0V4.643a.984.984 0 01.983-.983h11.804a.983.983 0 01.983.983v11.804a.983.983 0 01-.983.983H44.262a.984.984 0 01-.983-.983v-5.902a.983.983 0 00-1.968 0v5.902a2.95 2.95 0 002.951 2.95h11.804a2.95 2.95 0 002.95-2.95V4.643a2.95 2.95 0 00-2.95-2.95zM46.23 41.037a3.934 3.934 0 107.867 0 3.934 3.934 0 00-7.867 0zm5.901 0a1.967 1.967 0 11-3.934 0 1.967 1.967 0 013.934 0z" fill="#1D3557"/><path d="M56.066 32.184H44.262a2.95 2.95 0 00-2.95 2.951v11.803a2.95 2.95 0 002.95 2.951h11.804a2.95 2.95 0 002.95-2.95V44.97a.984.984 0 10-1.967 0v1.968a.983.983 0 01-.983.983H44.262a.984.984 0 01-.983-.983V35.134a.984.984 0 01.983-.983h11.804a.983.983 0 01.983.983v5.902a.984.984 0 001.967 0v-5.902a2.95 2.95 0 00-2.95-2.95zM22.102 13.348a.984.984 0 00.964.04l5.901-2.951a.983.983 0 000-1.751l-5.901-2.95a.983.983 0 00-1.427.875v5.901a.984.984 0 00.463.836zm1.505-5.144l2.714 1.357-2.714 1.358V8.204z" fill="#1D3557"/><path d="M24.59 18.414a8.853 8.853 0 100-17.705 8.853 8.853 0 000 17.705zm0-15.738a6.885 6.885 0 110 13.77 6.885 6.885 0 010-13.77zm9.836 19.672a.984.984 0 00.787-.393l2.95-3.934a.983.983 0 10-1.573-1.18l-2.95 3.934a.983.983 0 00.786 1.573zm2.164 3.542a.983.983 0 001.377.196l3.935-2.95a.984.984 0 00-1.18-1.575l-3.935 2.951a.984.984 0 00-.197 1.377zm9.64 2.163a.984.984 0 00-1.18-.787l-4.919.984a.988.988 0 10.197 1.967h.197l4.918-.983a.984.984 0 00.787-1.18zM.984 28.25h11.803a.984.984 0 00.983-.984V11.53a.984.984 0 00-.983-.984H.984A.984.984 0 000 11.53v15.737a.984.984 0 00.984.984zm.983-15.738h9.836v13.77H1.967v-13.77z" fill="#1D3557"/><path d="M8.852 14.48H6.885a.983.983 0 100 1.967h1.967a.983.983 0 100-1.967zm0 3.934H4.918a.983.983 0 100 1.967h3.934a.983.983 0 100-1.967zm0 3.934H4.918a.984.984 0 000 1.968h3.934a.984.984 0 100-1.968zm24.708 5.607a.99.99 0 00-1.347-.364.985.985 0 00-.364 1.348l4.338 7.504-15.738 5.902h-.147l-2.558 1.476-1.701.983a1.968 1.968 0 01-2.686-.718l-1.967-3.403a1.968 1.968 0 01.738-2.597l3.403-1.967 2.46 4.259a.984.984 0 00.855.492.983.983 0 00.856-1.476l-2.538-4.387 12.344-10.18.404.698a.986.986 0 001.711-.983l-.984-1.702a.984.984 0 00-.678-.472.984.984 0 00-.807.207l-13.77 11.35-4.19 2.42a3.934 3.934 0 00-1.81 4.456l-.984.56a2.951 2.951 0 001.475 5.509 3.01 3.01 0 001.476-.394l.983-.56a3.816 3.816 0 002.755 1.16 3.875 3.875 0 001.967-.531l.855-.492 1.968 3.413a2.951 2.951 0 004.89.323 2.952 2.952 0 00.215-3.273l-1.79-3.118 14.754-5.538a.984.984 0 00.511-1.407l-4.898-8.498zm-23.232 16.81a.983.983 0 01-.748.098.984.984 0 01-.6-.452.984.984 0 01.364-1.348l.856-.492.984 1.702-.856.492zm12.944 2.754a.983.983 0 01.099.747.984.984 0 01-.463.59.984.984 0 01-1.338-.354l-1.967-3.413 1.633-.934h.079l1.957 3.364z" fill="#1D3557"/></svg>