<svg width="58" height="61" fill="none" xmlns="http://www.w3.org/2000/svg"><path d="M27.647 26.265c-.562.584-1.263.898-1.976.882-.678-.014-1.313-.318-1.788-.855a.879.879 0 10-1.317 1.165c.804.909 1.894 1.422 3.068 1.447h.087c1.177 0 2.308-.502 3.192-1.42a.879.879 0 10-1.266-1.219zm16.158 28.554h1.857a2.157 2.157 0 002.154-2.155v-2.1h2.104a2.157 2.157 0 002.154-2.155v-1.86a2.157 2.157 0 00-2.154-2.154h-2.104v-2.101a2.157 2.157 0 00-2.154-2.154h-1.857a2.157 2.157 0 00-2.154 2.154v2.1h-2.105a2.157 2.157 0 00-2.154 2.155v1.86c0 1.188.966 2.155 2.154 2.155h2.105v2.1c0 1.188.966 2.155 2.154 2.155zm-4.258-6.013a.402.402 0 01-.397-.397v-1.86c0-.215.181-.397.397-.397h2.982a.879.879 0 00.88-.879v-2.98c0-.218.177-.396.396-.396h1.857c.218 0 .397.178.397.397v2.98c0 .485.393.878.878.878h2.983c.215 0 .397.182.397.397v1.86a.402.402 0 01-.397.397h-2.983a.879.879 0 00-.878.879v2.98a.397.397 0 01-.397.396h-1.857a.397.397 0 01-.397-.397v-2.98a.879.879 0 00-.879-.878h-2.983z" fill="#1D3557"/><path d="M55.911 41.543a.879.879 0 00-1.552.824c2.816 5.308.79 11.919-4.516 14.736a10.826 10.826 0 01-8.3.795 10.908 10.908 0 01-3.315-1.67 10.855 10.855 0 01-3.117-3.637 10.826 10.826 0 01-.796-8.304 10.824 10.824 0 015.308-6.432 10.88 10.88 0 0112.636 1.74.88.88 0 001.313-.112c.27-.36.203-.873-.123-1.183a12.632 12.632 0 00-14.13-2.257c-2.305-.834-6.471-1.93-6.5-1.942v-2.934c2.857-2.108 5.118-5.189 6.013-8.248 2.583-.264 4.334-1.906 4.334-4.16v-1.262c0-.52-.137-1.007-.375-1.43v-5.09a9.452 9.452 0 00-9.453-9.452h-1.635A13.414 13.414 0 0025.752.14c-2.135 0-4.155.499-5.951 1.385h-1.636a9.452 9.452 0 00-9.451 9.452v5.09c-.239.423-.376.91-.376 1.43v1.263c0 2.253 1.75 3.895 4.334 4.159.895 3.059 3.156 6.14 6.013 8.248V34.1c-.03.012-.078.029-.15.047-2.152.552-4.439 1.162-6.656 2.009-.448.171-.704.669-.546 1.121a.88.88 0 001.145.532c2.12-.812 4.34-1.406 6.435-1.944.79 3.038 3.557 5.287 6.839 5.287 3.282 0 6.049-2.249 6.84-5.287 1.611.415 3.194.837 4.743 1.345a12.556 12.556 0 00-4.7 6.561 12.571 12.571 0 00.924 9.643 12.72 12.72 0 001.893 2.672H11.577v-5.01c0-.482-.37-.901-.852-.916a.879.879 0 00-.905.879v5.047s-7.75-.002-7.815-.006a.23.23 0 01-.214-.272l.001-.003 1.864-9.537c.544-2.791 2.278-5.014 5.3-6.795.412-.243.585-.773.356-1.193a.879.879 0 00-1.217-.34c-3.451 2.026-5.525 4.714-6.164 7.991L.067 55.47c-.053.273-.215 1.107.295 1.726.474.575 1.25.649 1.873.649h35.23a12.686 12.686 0 003.563 1.734 12.593 12.593 0 009.64-.923c6.162-3.272 8.514-10.949 5.243-17.113zM41.408 17.497v1.263c0 1.297-.997 2.044-2.206 2.318a8.69 8.69 0 00.048-.9v-3.825l.007-.003 1.03.003c.608 0 1.121.524 1.121 1.144zm-.375-6.52v3.718a2.852 2.852 0 00-.746-.1H39.25v-.957c0-4.106-1.844-7.79-4.746-10.267 3.692.563 6.529 3.76 6.529 7.606zM25.82 1.897c6.478.038 11.671 5.391 11.671 11.87v1.235l-3.071 1.982a3.786 3.786 0 00-3.27-1.884 3.794 3.794 0 00-3.685 2.907H24.04a3.794 3.794 0 00-3.685-2.907 3.786 3.786 0 00-3.27 1.884l-3.072-1.982v-1.365c0-6.496 5.304-11.777 11.809-11.74zm7.356 16.989a2.031 2.031 0 01-2.26 2.018 2.039 2.039 0 01-1.785-1.785 2.03 2.03 0 013.998-.663l.007.031c.026.13.04.262.04.399zm-10.805.233a2.04 2.04 0 01-1.785 1.785 2.031 2.031 0 01-2.22-2.415l.007-.034a2.03 2.03 0 013.998.664zm-12.276-.36v-1.262c0-.62.513-1.144 1.12-1.144h1.038v3.825c0 .297.017.597.049.9-1.21-.274-2.207-1.02-2.207-2.318zm2.158-5.122v.958h-1.037c-.258 0-.508.035-.746.1v-3.718c0-3.847 2.837-7.043 6.529-7.606a13.472 13.472 0 00-4.746 10.266zm18.807 20.45a5.316 5.316 0 01-5.217 5.308c-2.97.05-5.401-2.432-5.401-5.403v-1.698c.6.33 1.215.617 1.843.85 1.276.47 2.377.688 3.466.688 1.088 0 2.19-.219 3.468-.69a13.614 13.614 0 001.841-.848v1.792zm-2.45-2.593c-1.076.396-1.984.58-2.859.58s-1.783-.184-2.856-.58c-4.733-1.755-8.884-7.043-8.884-11.316v-3.084l2.56 1.653c-.001.046-.003.092-.003.139a3.791 3.791 0 003.785 3.789 3.795 3.795 0 003.685-2.91h3.426a3.795 3.795 0 003.685 2.91c2.087 0 3.785-1.7 3.785-3.79 0-.046-.002-.092-.004-.138l2.561-1.653v3.084c0 4.273-4.151 9.561-8.881 11.316z" fill="#1D3557"/><path d="M23.137 7.755c1.784-.496 3.446-.496 5.23 0a.878.878 0 10.47-1.694c-2.105-.585-4.066-.585-6.17 0a.879.879 0 10.47 1.694zm-3.016 3.485c3.842-1.066 7.42-1.066 11.263 0a.879.879 0 10.47-1.694c-4.163-1.155-8.04-1.155-12.202 0a.879.879 0 10.47 1.693z" fill="#1D3557"/></svg>