<svg width="60" height="60" fill="none" xmlns="http://www.w3.org/2000/svg"><path d="M13.802 20.431a1.173 1.173 0 10-1.657 1.66 1.173 1.173 0 001.657-1.66zm15.87 32.036a4.07 4.07 0 00.796-2.43 4.106 4.106 0 00-4.102-4.1H6.446a4.074 4.074 0 00-2.901 1.2 4.074 4.074 0 00-1.201 2.9c0 .909.297 1.749.798 2.429A5.864 5.864 0 000 57.655v1.172c0 .647.525 1.171 1.172 1.171H31.64c.647 0 1.172-.524 1.172-1.171v-1.172a5.864 5.864 0 00-3.14-5.188zm-24.47-3.673a1.746 1.746 0 011.243-.514h19.921a1.76 1.76 0 011.244 3 1.746 1.746 0 01-1.244.515H6.446a1.76 1.76 0 01-1.244-3zm-2.858 8.86a3.52 3.52 0 013.515-3.515h21.093a3.52 3.52 0 013.516 3.516H2.344z" fill="#1D3557"/><path d="M58.91 49.233a7.379 7.379 0 00-1.411-1.62l-5.476-4.776a1.184 1.184 0 00-.466-.407l-3.312-2.888-15.327-13.37a3.486 3.486 0 00.973-2.426 3.494 3.494 0 00-2.002-3.171l1.418-1.418a4.673 4.673 0 004.525-1.211 4.656 4.656 0 001.374-3.315c0-1.252-.488-2.43-1.374-3.315L27.89 1.373A4.658 4.658 0 0024.574 0a4.656 4.656 0 00-3.314 1.373A4.689 4.689 0 0020.049 5.9L5.9 20.046a4.718 4.718 0 00-1.213-.159c-1.253 0-2.43.488-3.314 1.372a4.693 4.693 0 000 6.63l9.943 9.943a4.673 4.673 0 003.314 1.37c1.2 0 2.401-.456 3.315-1.37a4.689 4.689 0 001.211-4.525l1.416-1.416c.17.356.4.683.687.97a3.492 3.492 0 002.486 1.03 3.49 3.49 0 002.425-.972l16.325 18.756a1.177 1.177 0 00.225.258l4.864 5.59c.121.142.25.282.385.417A6.97 6.97 0 0052.923 60c.327 0 .657-.023.987-.068 2.206-.306 4.113-1.626 5.232-3.622 1.224-2.189 1.133-4.967-.232-7.077zM22.917 3.032a2.328 2.328 0 011.657-.687 2.33 2.33 0 011.658.687l9.943 9.943c.443.443.687 1.031.687 1.657a2.345 2.345 0 01-4 1.657l-9.944-9.943a2.346 2.346 0 010-3.314zM16.29 36.175a2.347 2.347 0 01-3.315 0l-9.943-9.943a2.347 2.347 0 010-3.315 2.327 2.327 0 011.657-.686c.626 0 1.214.243 1.656.685l9.945 9.945c.914.914.914 2.4 0 3.314zm4.934-8.248l-3.277 3.277-9.944-9.944L21.26 8.002l9.944 9.944-3.283 3.282-.032.031-6.626 6.626-.04.042zm4.184 2.445l-.007.006-.825.826a1.165 1.165 0 01-.829.343c-.313 0-.608-.122-.829-.343a1.165 1.165 0 01-.344-.83c0-.307.118-.595.33-.813l6.657-6.657a1.176 1.176 0 011.644.013c.222.221.344.516.344.83 0 .313-.122.606-.344.828l-.82.82a1.315 1.315 0 00-.017.017l-4.96 4.96zm2.427.887l3.425-3.425 14.501 12.65-5.292 5.29L27.834 31.26zM42.01 47.547l5.52-5.52 1.77 1.544-5.748 5.748-1.542-1.772zm15.086 7.618c-.757 1.35-2.035 2.241-3.508 2.445a4.656 4.656 0 01-4.22-1.607l-.01-.013-4.264-4.899 5.976-5.976 4.892 4.268.012.01c.366.311.69.685.967 1.112.886 1.37.948 3.242.155 4.66z" fill="#1D3557"/><path d="M22.088 12.145a1.172 1.172 0 00-1.658 0l-4.972 4.972a1.172 1.172 0 101.658 1.657l4.972-4.972c.457-.457.457-1.2 0-1.657z" fill="#1D3557"/></svg>