<svg width="38" height="41" fill="none" xmlns="http://www.w3.org/2000/svg"><path d="M21.992 20.574L1.518 39.916A3.4 3.4 0 010 37.065V4.082a3.4 3.4 0 011.518-2.85l20.474 19.342z" fill="#25DAF9"/><path d="M29.156 13.817l-7.164 6.757L1.518 1.23a2.73 2.73 0 01.24-.163 3.56 3.56 0 013.536-.055l23.862 12.804z" fill="#1EF687"/><path d="M37.838 20.574a3.463 3.463 0 01-1.852 3.087l-6.83 3.669-7.164-6.756 7.164-6.757 6.83 3.67a3.463 3.463 0 011.852 3.087z" fill="#FFC519"/><path d="M29.156 27.33L5.294 40.134c-1.104.6-2.45.58-3.535-.054a2.736 2.736 0 01-.24-.164l20.473-19.342 7.164 6.756z" fill="#FE243F"/></svg>