<svg width="36" height="36" fill="none" xmlns="http://www.w3.org/2000/svg"><path d="M27.216 3.524H8.618a5.865 5.865 0 00-5.86 5.859V27.98a5.865 5.865 0 005.86 5.859h18.599a5.865 5.865 0 005.858-5.859V9.38a5.865 5.865 0 00-5.859-5.857zm1.68 3.494l.67-.003v5.138l-5.12.017-.019-5.137 4.47-.015zM13.59 15.57a5.334 5.334 0 014.327-2.224 5.33 5.33 0 014.326 2.224 5.306 5.306 0 011.01 3.112 5.343 5.343 0 01-5.337 5.335 5.342 5.342 0 01-5.336-5.335 5.31 5.31 0 011.01-3.112zm16.53 12.41a2.907 2.907 0 01-2.904 2.906H8.618a2.907 2.907 0 01-2.906-2.905V15.57h4.526a8.245 8.245 0 00-.61 3.11c0 4.57 3.717 8.29 8.289 8.29 4.57 0 8.289-3.72 8.289-8.29 0-1.1-.221-2.15-.612-3.11h4.527v12.41z" fill="#1D3557"/></svg>