<svg width="36" height="34" fill="none" xmlns="http://www.w3.org/2000/svg"><g clip-path="url(#clip0)"><path d="M34.786 6.366A13.95 13.95 0 0130.73 7.49a7.132 7.132 0 003.106-3.946 14.057 14.057 0 01-4.485 1.732 7.023 7.023 0 00-5.156-2.252c-3.9 0-7.063 3.192-7.063 7.131 0 .558.063 1.102.183 1.625-5.87-.298-11.075-3.136-14.559-7.451A7.147 7.147 0 001.8 7.915a7.145 7.145 0 003.142 5.935 6.991 6.991 0 01-3.2-.892v.09c0 3.454 2.435 6.336 5.666 6.992a7.037 7.037 0 01-3.19.122c.9 2.833 3.508 4.895 6.598 4.952a14.085 14.085 0 01-8.772 3.053c-.57 0-1.132-.034-1.685-.1a19.85 19.85 0 0010.827 3.204c12.993 0 20.097-10.866 20.097-20.29 0-.309-.006-.617-.02-.923a14.383 14.383 0 003.524-3.69z" fill="#1D3557"/></g><defs><clipPath id="clip0"><path fill="#fff" transform="translate(.336 .737)" d="M0 0h34.668v32.501H0z"/></clipPath></defs></svg>