<svg width="208" height="450" fill="none" xmlns="http://www.w3.org/2000/svg"><path d="M4.952 170.242c-.889 3.109-15.102 78.173 9.327 147.907 3.998.889 3.553-10.216 3.553-10.216l-4.441-95.495 2.22-35.978-10.66-6.218z" fill="#DE8E68"/><path d="M71.577 449.623H28.493s-14.658-151.461-14.658-154.57c2.665 2.665 2.22 3.553 13.325 6.662 6.662 7.107 53.744 125.255 53.744 125.255l-9.327 22.653z" fill="#56CAD8"/><path d="M50.172 113.833c20.756 5.938 4.367 69.338-3.317 74.651-7.684 5.312-43.706-9.639-46.611-16.363-2.905-6.725 20.542-66.696 49.928-58.288z" fill="#FCC486"/><path d="M68.912 96.954c66.181 0 67.513 190.104 58.186 198.099-9.328 7.995-104.824 15.545-113.263 0C5.396 279.507-3.043 96.954 68.912 96.954z" fill="#FED385"/><path d="M92.897 109.835c17.322-12.88 57.741 38.643 57.297 47.97-.444 9.328-34.201 28.871-41.307 27.094-7.107-1.776-40.517-56.826-15.99-75.064z" fill="#FED892"/><path d="M143.976 159.582c16.434 27.094 20.876 63.071 20.876 69.29 0 16.878-8.439 25.317-13.769 25.317-21.32 0-91.499-54.188-96.385-58.63-4.885-4.441 9.328-17.766 11.549-15.546 2.22 2.221 27.538 18.211 64.404 34.201-5.33-6.662-20.876-26.65-21.32-32.868-.444-6.218 34.645-21.764 34.645-21.764z" fill="#DE8E68"/><path d="M45.137 146.61l-27.748 4.187 7.176 47.565 27.749-4.187-7.177-47.565z" fill="#333"/><path d="M65.349 190.119c3.311-5.736-.462-14.115-8.429-18.714-7.966-4.6-17.11-3.679-20.42 2.057-3.313 5.736.461 14.115 8.428 18.714 7.966 4.6 17.109 3.679 20.42-2.057z" fill="#DE8E68"/><path d="M80.46 105.393c0 5.775-23.097 6.219-23.097 0V70.304H80.46v35.089z" fill="#D37C59"/><path d="M62.916 91.18c12.633 0 22.874-18.196 22.874-40.641 0-22.446-10.241-40.641-22.874-40.641-12.634 0-22.875 18.195-22.875 40.64 0 22.446 10.241 40.642 22.875 40.642z" fill="#DE8E68"/><path d="M84.236 62.31a5.996 5.996 0 100-11.993 5.996 5.996 0 000 11.992z" fill="#DE8E68"/><path d="M162.187 4.123c-17.322 0-31.536 12.437-50.191 12.437C98.671 16.56 85.79.57 67.136.57 43.15.57 35.6 13.45 35.6 22.334c0 7.107 4.441 15.102 5.774 15.102 0-2.22 2.665-10.216 3.553-11.104.888 3.109 19.543 24.873 35.978 24.873v.124a5.996 5.996 0 110 9.968v13.005h4.441c5.774 0 8.44-2.221 17.323-2.221 15.546 0 37.31 19.1 63.96 19.1 28.871 0 40.863-21.765 40.863-46.194 0-32.424-30.647-40.864-45.305-40.864z" fill="#000"/><path d="M127.098 295.053v154.57H71.577l-44.47-148.01c15.6 2.767 74.673 4.988 99.991-6.56z" fill="#74D5DE"/></svg>